<svg width="24" height="24" viewBox="0 0 24 24" fill="none" xmlns="http://www.w3.org/2000/svg">
<path d="M3.946 7.57624L4.163 6.34524C4.28964 5.6269 4.69645 4.98829 5.29395 4.5699C5.89144 4.1515 6.63066 3.9876 7.349 4.11424C8.06734 4.24088 8.70595 4.64769 9.12434 5.24518C9.54274 5.84267 9.70664 6.5819 9.58 7.30024L9.362 8.53024L3.946 7.57624ZM5.822 19.9692C3.358 19.5352 1.804 16.8452 2.238 14.3832C2.672 11.9202 3.425 10.5302 3.598 9.54524L9.015 10.5002L9.247 12.0642C9.479 13.6282 9.797 14.7002 9.624 15.6842C9.277 17.6542 7.792 20.3162 5.822 19.9692Z" fill="#09121F"/>
</svg>
