<svg width="299" height="166" viewBox="0 0 299 166" fill="none" xmlns="http://www.w3.org/2000/svg">
<circle cx="26.5" cy="157.5" r="2.5" fill="black" fill-opacity="0.75"/>
<circle cx="26.5" cy="157.5" r="3.5" stroke="black" stroke-opacity="0.25" stroke-width="2"/>
<circle cx="60.5" cy="112.5" r="2.5" fill="black" fill-opacity="0.75"/>
<circle cx="60.5" cy="112.5" r="3.5" stroke="black" stroke-opacity="0.25" stroke-width="2"/>
<circle cx="98.5" cy="101.5" r="2.5" fill="black" fill-opacity="0.75"/>
<circle cx="98.5" cy="101.5" r="3.5" stroke="black" stroke-opacity="0.25" stroke-width="2"/>
<circle cx="127.5" cy="48.5" r="2.5" fill="black" fill-opacity="0.75"/>
<circle cx="127.5" cy="48.5" r="3.5" stroke="black" stroke-opacity="0.25" stroke-width="2"/>
<circle cx="69.5" cy="67.5" r="2.5" fill="black" fill-opacity="0.75"/>
<circle cx="69.5" cy="67.5" r="3.5" stroke="black" stroke-opacity="0.25" stroke-width="2"/>
<circle cx="68.5" cy="152.5" r="2.5" fill="black" fill-opacity="0.75"/>
<circle cx="68.5" cy="152.5" r="3.5" stroke="black" stroke-opacity="0.25" stroke-width="2"/>
<circle cx="5.5" cy="108.5" r="3.5" fill="black" fill-opacity="0.75"/>
<circle cx="5.5" cy="108.5" r="4.5" stroke="black" stroke-opacity="0.5" stroke-width="2"/>
<circle cx="127.5" cy="157.5" r="3.5" fill="black" fill-opacity="0.75"/>
<circle cx="127.5" cy="157.5" r="4.5" stroke="black" stroke-opacity="0.5" stroke-width="2"/>
<circle cx="28.5" cy="160.5" r="3.5" fill="black" fill-opacity="0.75"/>
<circle cx="28.5" cy="160.5" r="4.5" stroke="black" stroke-opacity="0.5" stroke-width="2"/>
<circle cx="142.5" cy="95.5" r="3.5" fill="black" fill-opacity="0.75"/>
<circle cx="142.5" cy="95.5" r="4.5" stroke="black" stroke-opacity="0.5" stroke-width="2"/>
<circle cx="44.5" cy="5.5" r="3.5" fill="black" fill-opacity="0.75"/>
<circle cx="44.5" cy="5.5" r="4.5" stroke="black" stroke-opacity="0.5" stroke-width="2"/>
<circle cx="101.5" cy="12.5" r="3.5" fill="black" fill-opacity="0.75"/>
<circle cx="101.5" cy="12.5" r="4.5" stroke="black" stroke-opacity="0.5" stroke-width="2"/>
<circle cx="132.5" cy="50.5" r="3.5" fill="black" fill-opacity="0.75"/>
<circle cx="132.5" cy="50.5" r="4.5" stroke="black" stroke-opacity="0.5" stroke-width="2"/>
<circle cx="64.5" cy="66.5" r="3.5" fill="black" fill-opacity="0.75"/>
<circle cx="64.5" cy="66.5" r="4.5" stroke="black" stroke-opacity="0.5" stroke-width="2"/>
<circle cx="74.5" cy="151.5" r="3.5" fill="black" fill-opacity="0.75"/>
<circle cx="74.5" cy="151.5" r="4.5" stroke="black" stroke-opacity="0.5" stroke-width="2"/>
<path d="M44.2274 5.39326L102.227 11.3933L128 48M44.2274 5.39326L69.5 67.5M44.2274 5.39326L128 48M128 48L143.227 95.3933M128 48L69.5 67.5M128 48L98.5 102M143.227 95.3933L128.227 158.393M143.227 95.3933L98.5 102M128.227 158.393L69.5 153M128.227 158.393L98.5 102M128.227 158.393L60 112.5M69.5 153L26.5 157L4.22736 108.393M69.5 153L4.22736 108.393M69.5 153L60 112.5M4.22736 108.393L69.5 67.5M4.22736 108.393L60 112.5M69.5 67.5L98.5 102M69.5 67.5L60 112.5M98.5 102L60 112.5" stroke="black" stroke-opacity="0.5" stroke-width="2" stroke-linecap="round" stroke-linejoin="round"/>
<path d="M102.5 11.5L44.5 5.5L64 66M102.5 11.5L133.5 50M102.5 11.5L64 66M133.5 50L143.5 95.5M133.5 50L64 66M133.5 50L104 101M143.5 95.5L128.5 158.5M143.5 95.5L104 101M128.5 158.5L74.5 152M128.5 158.5L104 101M74.5 152L28 160.5L4.50001 108.5M74.5 152L64 66M74.5 152L4.50001 108.5M74.5 152L104 101M4.50001 108.5L64 66M64 66L104 101" stroke="black" stroke-width="4" stroke-linecap="round" stroke-linejoin="round"/>
<circle cx="164.5" cy="82.5" r="7.5" fill="black"/>
<path d="M210.853 39.915C215.186 40.8114 221.298 42.6041 223.589 45.2932C225.93 47.9325 227.1 51.1444 227.1 54.929C227.1 58.0165 226.253 60.8799 224.56 63.5191C222.917 66.1584 220.377 68.2997 216.941 69.943C213.555 71.5366 209.347 72.3333 204.317 72.3333C200.632 72.3333 196.972 71.8852 193.337 70.9888C190.433 70.2629 187.84 69.292 185.557 68.0762C184.655 67.5958 184.337 66.4814 184.782 65.5612L188.368 58.1408C188.9 57.0398 190.285 56.6756 191.36 57.259C192.872 58.0798 194.502 58.7473 196.25 59.2614C198.84 60.0084 201.379 60.3819 203.869 60.3819C206.409 60.3819 208.426 59.9088 209.92 58.9626C211.414 58.0165 212.161 56.672 212.161 54.929C212.161 51.5428 209.496 49.8497 204.168 49.8497H196.167C195.615 49.8497 195.167 49.402 195.167 48.8497V41.4512C195.167 40.8566 195.432 40.2928 195.889 39.9128L207.305 30.4286H190.256C189.276 30.4286 188.44 29.7183 188.282 28.7511L187.069 21.3225C186.87 20.1054 187.809 19 189.042 19H221.727C222.761 19 223.624 19.788 223.718 20.8176L224.386 28.1135C224.448 28.7886 224.164 29.449 223.631 29.868L210.853 39.915Z" fill="black"/>
<path d="M236.622 22C236.622 20.3431 237.965 19 239.622 19H263.594C270.359 19 276.363 20.341 281.605 23.0229C286.847 25.7048 290.9 29.4838 293.765 34.36C296.691 39.1752 298.154 44.7219 298.154 51C298.154 57.2781 296.691 62.8552 293.765 67.7314C290.9 72.5467 286.847 76.2952 281.605 78.9771C276.363 81.6591 270.359 83 263.594 83H239.622C237.965 83 236.622 81.6569 236.622 80V22ZM263.045 75.0457C268.226 75.0457 272.767 74.04 276.668 72.0286C280.63 70.0171 283.677 67.2133 285.811 63.6171C287.944 59.96 289.011 55.7543 289.011 51C289.011 46.2457 287.944 42.0705 285.811 38.4743C283.677 34.8171 280.63 31.9829 276.668 29.9714C272.767 27.96 268.226 26.9543 263.045 26.9543H246.765C246.213 26.9543 245.765 27.402 245.765 27.9543V74.0457C245.765 74.598 246.213 75.0457 246.765 75.0457H263.045Z" fill="black"/>
<path d="M184.474 85C184.474 83.8954 185.37 83 186.474 83H211.446C218.211 83 224.215 84.3409 229.457 87.0229C234.699 89.7048 238.752 93.4838 241.617 98.36C244.543 103.175 246.006 108.722 246.006 115C246.006 121.278 244.543 126.855 241.617 131.731C238.752 136.547 234.699 140.295 229.457 142.977C224.215 145.659 218.211 147 211.446 147H186.474C185.37 147 184.474 146.105 184.474 145V85ZM210.897 139.046C216.078 139.046 220.619 138.04 224.52 136.029C228.482 134.017 231.529 131.213 233.663 127.617C235.796 123.96 236.863 119.754 236.863 115C236.863 110.246 235.796 106.07 233.663 102.474C231.529 98.8171 228.482 95.9828 224.52 93.9714C220.619 91.96 216.078 90.9543 210.897 90.9543H194.617C194.065 90.9543 193.617 91.402 193.617 91.9543V138.046C193.617 138.598 194.065 139.046 194.617 139.046H210.897Z" fill="black"/>
<path d="M265.333 106.629C265.333 106.076 264.886 105.629 264.333 105.629H251.611C250.628 105.629 249.791 104.914 249.636 103.943L248.369 95.9812C248.175 94.7665 249.114 93.6667 250.344 93.6667H295.333C296.563 93.6667 297.501 94.7665 297.308 95.9812L296.04 103.943C295.885 104.914 295.048 105.629 294.065 105.629H281.419C280.867 105.629 280.419 106.076 280.419 106.629V145C280.419 146.105 279.524 147 278.419 147H267.333C266.229 147 265.333 146.105 265.333 145V106.629Z" fill="black"/>
</svg>
