<svg width="199" height="227" viewBox="0 0 199 227" fill="none" xmlns="http://www.w3.org/2000/svg">
<circle cx="48.5" cy="158.393" r="2.5" fill="black" fill-opacity="0.75"/>
<circle cx="48.5" cy="158.393" r="3.5" stroke="black" stroke-opacity="0.25" stroke-width="2"/>
<circle cx="82.5" cy="113.393" r="2.5" fill="black" fill-opacity="0.75"/>
<circle cx="82.5" cy="113.393" r="3.5" stroke="black" stroke-opacity="0.25" stroke-width="2"/>
<circle cx="120.5" cy="102.393" r="2.5" fill="black" fill-opacity="0.75"/>
<circle cx="120.5" cy="102.393" r="3.5" stroke="black" stroke-opacity="0.25" stroke-width="2"/>
<circle cx="149.5" cy="49.3933" r="2.5" fill="black" fill-opacity="0.75"/>
<circle cx="149.5" cy="49.3933" r="3.5" stroke="black" stroke-opacity="0.25" stroke-width="2"/>
<circle cx="91.5" cy="68.3932" r="2.5" fill="black" fill-opacity="0.75"/>
<circle cx="91.5" cy="68.3932" r="3.5" stroke="black" stroke-opacity="0.25" stroke-width="2"/>
<circle cx="90.5" cy="153.393" r="2.5" fill="black" fill-opacity="0.75"/>
<circle cx="90.5" cy="153.393" r="3.5" stroke="black" stroke-opacity="0.25" stroke-width="2"/>
<circle cx="27.5" cy="109.393" r="3.5" fill="black" fill-opacity="0.75"/>
<circle cx="27.5" cy="109.393" r="4.5" stroke="black" stroke-opacity="0.5" stroke-width="2"/>
<circle cx="149.5" cy="158.393" r="3.5" fill="black" fill-opacity="0.75"/>
<circle cx="149.5" cy="158.393" r="4.5" stroke="black" stroke-opacity="0.5" stroke-width="2"/>
<circle cx="50.5" cy="161.393" r="3.5" fill="black" fill-opacity="0.75"/>
<circle cx="50.5" cy="161.393" r="4.5" stroke="black" stroke-opacity="0.5" stroke-width="2"/>
<circle cx="164.5" cy="96.3932" r="3.5" fill="black" fill-opacity="0.75"/>
<circle cx="164.5" cy="96.3932" r="4.5" stroke="black" stroke-opacity="0.5" stroke-width="2"/>
<circle cx="66.5" cy="6.39326" r="3.5" fill="black" fill-opacity="0.75"/>
<circle cx="66.5" cy="6.39326" r="4.5" stroke="black" stroke-opacity="0.5" stroke-width="2"/>
<circle cx="123.5" cy="13.3933" r="3.5" fill="black" fill-opacity="0.75"/>
<circle cx="123.5" cy="13.3933" r="4.5" stroke="black" stroke-opacity="0.5" stroke-width="2"/>
<circle cx="154.5" cy="51.3932" r="3.5" fill="black" fill-opacity="0.75"/>
<circle cx="154.5" cy="51.3932" r="4.5" stroke="black" stroke-opacity="0.5" stroke-width="2"/>
<circle cx="86.5" cy="67.3932" r="3.5" fill="black" fill-opacity="0.75"/>
<circle cx="86.5" cy="67.3932" r="4.5" stroke="black" stroke-opacity="0.5" stroke-width="2"/>
<circle cx="96.5" cy="152.393" r="3.5" fill="black" fill-opacity="0.75"/>
<circle cx="96.5" cy="152.393" r="4.5" stroke="black" stroke-opacity="0.5" stroke-width="2"/>
<path d="M66.2274 6.28653L124.227 12.2865L150 48.8933M66.2274 6.28653L91.5 68.3933M66.2274 6.28653L150 48.8933M150 48.8933L165.227 96.2865M150 48.8933L91.5 68.3933M150 48.8933L120.5 102.893M165.227 96.2865L150.227 159.287M165.227 96.2865L120.5 102.893M150.227 159.287L91.5 153.893M150.227 159.287L120.5 102.893M150.227 159.287L82 113.393M91.5 153.893L48.5 157.893L26.2274 109.287M91.5 153.893L26.2274 109.287M91.5 153.893L82 113.393M26.2274 109.287L91.5 68.3933M26.2274 109.287L82 113.393M91.5 68.3933L120.5 102.893M91.5 68.3933L82 113.393M120.5 102.893L82 113.393" stroke="black" stroke-opacity="0.5" stroke-width="2" stroke-linecap="round" stroke-linejoin="round"/>
<path d="M124.5 12.3933L66.5 6.39326L86 66.8933M124.5 12.3933L155.5 50.8933M124.5 12.3933L86 66.8933M155.5 50.8933L165.5 96.3933M155.5 50.8933L86 66.8933M155.5 50.8933L126 101.893M165.5 96.3933L150.5 159.393M165.5 96.3933L126 101.893M150.5 159.393L96.5 152.893M150.5 159.393L126 101.893M96.5 152.893L50 161.393L26.5 109.393M96.5 152.893L86 66.8933M96.5 152.893L26.5 109.393M96.5 152.893L126 101.893M26.5 109.393L86 66.8933M86 66.8933L126 101.893" stroke="black" stroke-width="4" stroke-linecap="round" stroke-linejoin="round"/>
<path d="M44.48 182.2C44.48 181.095 45.3754 180.2 46.48 180.2H65.664C70.5707 180.2 74.9227 181.117 78.72 182.952C82.5173 184.787 85.4613 187.389 87.552 190.76C89.6427 194.131 90.688 198.077 90.688 202.6C90.688 207.123 89.6427 211.069 87.552 214.44C85.4613 217.811 82.5173 220.413 78.72 222.248C74.9227 224.083 70.5707 225 65.664 225H46.48C45.3754 225 44.48 224.105 44.48 223V182.2ZM65.152 214.888C68.992 214.888 72.064 213.8 74.368 211.624C76.7147 209.448 77.888 206.44 77.888 202.6C77.888 198.76 76.7147 195.752 74.368 193.576C72.064 191.4 68.992 190.312 65.152 190.312H58.152C57.5997 190.312 57.152 190.76 57.152 191.312V213.888C57.152 214.44 57.5997 214.888 58.152 214.888H65.152Z" fill="black"/>
<path d="M74.028 211.257L74.028 211.257L74.0247 211.261C71.8324 213.331 68.8929 214.388 65.152 214.388H58.152C57.8759 214.388 57.652 214.164 57.652 213.888V191.312C57.652 191.036 57.8759 190.812 58.152 190.812H65.152C68.8929 190.812 71.8324 191.869 74.0247 193.94L74.0247 193.94L74.028 193.943C76.2525 196.005 77.388 198.869 77.388 202.6C77.388 206.331 76.2525 209.195 74.028 211.257ZM65.664 179.7H46.48C45.0993 179.7 43.98 180.819 43.98 182.2V223C43.98 224.381 45.0993 225.5 46.48 225.5H65.664C70.6337 225.5 75.0621 224.571 78.9375 222.698C82.8146 220.825 85.833 218.16 87.9769 214.704C90.1233 211.243 91.188 207.202 91.188 202.6C91.188 197.998 90.1233 193.957 87.9769 190.496C85.833 187.04 82.8146 184.375 78.9375 182.502C75.0621 180.629 70.6337 179.7 65.664 179.7Z" stroke="black" stroke-opacity="0.5"/>
<path d="M24.7775 198.039C28.6978 198.812 34.7504 200.359 36.8232 202.678C38.9411 204.954 40 207.725 40 210.989C40 213.652 39.234 216.121 37.7019 218.398C36.2149 220.674 33.9168 222.521 30.8076 223.938C27.7435 225.313 23.9359 226 19.3848 226C16.0503 226 12.7383 225.613 9.44887 224.84C6.56577 224.153 4.02072 223.212 1.81372 222.016C1.35079 221.765 1.18502 221.19 1.4231 220.72L5.36278 212.949C5.63177 212.418 6.30089 212.24 6.81624 212.537C8.41647 213.46 10.1727 214.189 12.0849 214.725C14.4281 215.37 16.7262 215.692 18.9792 215.692C21.2773 215.692 23.1023 215.284 24.4541 214.468C25.8059 213.652 26.4818 212.492 26.4818 210.989C26.4818 208.068 25.0711 205.608 20.2496 205.608H10.4712C9.9189 205.608 9.47119 205.16 9.47119 204.608V200.54C9.47119 199.919 9.75986 199.333 10.2524 198.954L22.0884 189.857H7.16233C6.21925 189.857 5.40432 189.198 5.20672 188.276L3.69246 181.21C3.55906 180.587 4.03362 180 4.67026 180H35.7393C36.2489 180 36.6769 180.383 36.7332 180.89L37.5036 187.819C37.5842 188.545 37.2634 189.256 36.6665 189.676L24.7775 198.039Z" fill="black"/>
<path d="M31.0123 224.395L31.015 224.393C34.1871 222.947 36.568 221.046 38.1186 218.674C39.7032 216.319 40.5 213.753 40.5 210.989C40.5 207.607 39.3989 204.714 37.1926 202.341C36.0605 201.077 33.9169 200.079 31.6549 199.306C29.7839 198.666 27.7627 198.159 26.0111 197.783L36.9542 190.085C37.7003 189.56 38.1013 188.671 38.0005 187.764L37.2301 180.834C37.1457 180.075 36.5036 179.5 35.7393 179.5H4.67026C3.71529 179.5 3.00347 180.381 3.20356 181.314L4.71782 188.381C4.96482 189.534 5.98348 190.357 7.16233 190.357H20.6174L9.94771 198.558C9.33202 199.031 8.97119 199.763 8.97119 200.54V204.608C8.97119 205.436 9.64276 206.108 10.4712 206.108H20.2496C22.5807 206.108 23.987 206.702 24.8157 207.552C25.6466 208.405 25.9818 209.601 25.9818 210.989C25.9818 212.306 25.4067 213.309 24.1957 214.04C22.9495 214.792 21.2252 215.192 18.9792 215.192C16.7746 215.192 14.5214 214.877 12.2184 214.244C10.3439 213.718 8.62711 213.004 7.06599 212.104C6.31779 211.673 5.32342 211.921 4.91682 212.723L0.977134 220.494C0.622349 221.194 0.863448 222.07 1.57553 222.456C3.82727 223.676 6.41469 224.631 9.33297 225.327L9.33448 225.327C12.6609 226.109 16.0112 226.5 19.3848 226.5C23.9828 226.5 27.8652 225.806 31.0123 224.395Z" stroke="black" stroke-opacity="0.5"/>
<circle cx="98.5" cy="218.5" r="6.5" fill="black"/>
<circle cx="98.5" cy="218.5" r="7.5" stroke="black" stroke-opacity="0.5" stroke-width="2"/>
<path d="M110.48 182.2C110.48 181.095 111.375 180.2 112.48 180.2H131.664C136.571 180.2 140.923 181.117 144.72 182.952C148.517 184.787 151.461 187.389 153.552 190.76C155.643 194.131 156.688 198.077 156.688 202.6C156.688 207.123 155.643 211.069 153.552 214.44C151.461 217.811 148.517 220.413 144.72 222.248C140.923 224.083 136.571 225 131.664 225H112.48C111.375 225 110.48 224.105 110.48 223V182.2ZM131.152 214.888C134.992 214.888 138.064 213.8 140.368 211.624C142.715 209.448 143.888 206.44 143.888 202.6C143.888 198.76 142.715 195.752 140.368 193.576C138.064 191.4 134.992 190.312 131.152 190.312H124.152C123.6 190.312 123.152 190.76 123.152 191.312V213.888C123.152 214.44 123.6 214.888 124.152 214.888H131.152Z" fill="black"/>
<path d="M140.028 211.257L140.028 211.257L140.025 211.261C137.832 213.331 134.893 214.388 131.152 214.388H124.152C123.876 214.388 123.652 214.164 123.652 213.888V191.312C123.652 191.036 123.876 190.812 124.152 190.812H131.152C134.893 190.812 137.832 191.869 140.025 193.94L140.025 193.94L140.028 193.943C142.252 196.005 143.388 198.869 143.388 202.6C143.388 206.331 142.252 209.195 140.028 211.257ZM131.664 179.7H112.48C111.099 179.7 109.98 180.819 109.98 182.2V223C109.98 224.381 111.099 225.5 112.48 225.5H131.664C136.634 225.5 141.062 224.571 144.938 222.698C148.815 220.825 151.833 218.16 153.977 214.704C156.123 211.243 157.188 207.202 157.188 202.6C157.188 197.998 156.123 193.957 153.977 190.496C151.833 187.04 148.815 184.375 144.938 182.502C141.062 180.629 136.634 179.7 131.664 179.7Z" stroke="black" stroke-opacity="0.5"/>
<path d="M171.016 191.248C171.016 190.696 170.568 190.248 170.016 190.248H159.897C158.943 190.248 158.122 189.574 157.936 188.638L156.732 182.59C156.486 181.353 157.432 180.2 158.693 180.2H195.947C197.208 180.2 198.154 181.353 197.908 182.59L196.704 188.638C196.518 189.574 195.697 190.248 194.743 190.248H184.688C184.136 190.248 183.688 190.696 183.688 191.248V223C183.688 224.105 182.793 225 181.688 225H173.016C171.911 225 171.016 224.105 171.016 223V191.248Z" fill="black"/>
<path d="M159.897 190.748H170.016C170.292 190.748 170.516 190.972 170.516 191.248V223C170.516 224.381 171.635 225.5 173.016 225.5H181.688C183.069 225.5 184.188 224.381 184.188 223V191.248C184.188 190.972 184.412 190.748 184.688 190.748H194.743C195.935 190.748 196.962 189.906 197.195 188.736L198.399 182.688C198.706 181.142 197.523 179.7 195.947 179.7H158.693C157.117 179.7 155.934 181.142 156.241 182.688L157.445 188.736C157.678 189.906 158.705 190.748 159.897 190.748Z" stroke="black" stroke-opacity="0.5"/>
</svg>
