<svg width="148" height="229" viewBox="0 0 148 229" fill="none" xmlns="http://www.w3.org/2000/svg">
<circle cx="26.5" cy="158.393" r="2.5" fill="black" fill-opacity="0.75"/>
<circle cx="26.5" cy="158.393" r="3.5" stroke="black" stroke-opacity="0.25" stroke-width="2"/>
<circle cx="60.5" cy="113.393" r="2.5" fill="black" fill-opacity="0.75"/>
<circle cx="60.5" cy="113.393" r="3.5" stroke="black" stroke-opacity="0.25" stroke-width="2"/>
<circle cx="98.5" cy="102.393" r="2.5" fill="black" fill-opacity="0.75"/>
<circle cx="98.5" cy="102.393" r="3.5" stroke="black" stroke-opacity="0.25" stroke-width="2"/>
<circle cx="127.5" cy="49.3932" r="2.5" fill="black" fill-opacity="0.75"/>
<circle cx="127.5" cy="49.3932" r="3.5" stroke="black" stroke-opacity="0.25" stroke-width="2"/>
<circle cx="69.5" cy="68.3932" r="2.5" fill="black" fill-opacity="0.75"/>
<circle cx="69.5" cy="68.3932" r="3.5" stroke="black" stroke-opacity="0.25" stroke-width="2"/>
<circle cx="68.5" cy="153.393" r="2.5" fill="black" fill-opacity="0.75"/>
<circle cx="68.5" cy="153.393" r="3.5" stroke="black" stroke-opacity="0.25" stroke-width="2"/>
<circle cx="5.5" cy="109.393" r="3.5" fill="black" fill-opacity="0.75"/>
<circle cx="5.5" cy="109.393" r="4.5" stroke="black" stroke-opacity="0.5" stroke-width="2"/>
<circle cx="127.5" cy="158.393" r="3.5" fill="black" fill-opacity="0.75"/>
<circle cx="127.5" cy="158.393" r="4.5" stroke="black" stroke-opacity="0.5" stroke-width="2"/>
<circle cx="28.5" cy="161.393" r="3.5" fill="black" fill-opacity="0.75"/>
<circle cx="28.5" cy="161.393" r="4.5" stroke="black" stroke-opacity="0.5" stroke-width="2"/>
<circle cx="142.5" cy="96.3932" r="3.5" fill="black" fill-opacity="0.75"/>
<circle cx="142.5" cy="96.3932" r="4.5" stroke="black" stroke-opacity="0.5" stroke-width="2"/>
<circle cx="44.5" cy="6.39325" r="3.5" fill="black" fill-opacity="0.75"/>
<circle cx="44.5" cy="6.39325" r="4.5" stroke="black" stroke-opacity="0.5" stroke-width="2"/>
<circle cx="101.5" cy="13.3932" r="3.5" fill="black" fill-opacity="0.75"/>
<circle cx="101.5" cy="13.3932" r="4.5" stroke="black" stroke-opacity="0.5" stroke-width="2"/>
<circle cx="132.5" cy="51.3932" r="3.5" fill="black" fill-opacity="0.75"/>
<circle cx="132.5" cy="51.3932" r="4.5" stroke="black" stroke-opacity="0.5" stroke-width="2"/>
<circle cx="64.5" cy="67.3932" r="3.5" fill="black" fill-opacity="0.75"/>
<circle cx="64.5" cy="67.3932" r="4.5" stroke="black" stroke-opacity="0.5" stroke-width="2"/>
<circle cx="74.5" cy="152.393" r="3.5" fill="black" fill-opacity="0.75"/>
<circle cx="74.5" cy="152.393" r="4.5" stroke="black" stroke-opacity="0.5" stroke-width="2"/>
<path d="M44.2274 6.2865L102.227 12.2865L128 48.8932M44.2274 6.2865L69.5 68.3932M44.2274 6.2865L128 48.8932M128 48.8932L143.227 96.2865M128 48.8932L69.5 68.3932M128 48.8932L98.5 102.893M143.227 96.2865L128.227 159.286M143.227 96.2865L98.5 102.893M128.227 159.286L69.5 153.893M128.227 159.286L98.5 102.893M128.227 159.286L60 113.393M69.5 153.893L26.5 157.893L4.22736 109.287M69.5 153.893L4.22736 109.287M69.5 153.893L60 113.393M4.22736 109.287L69.5 68.3932M4.22736 109.287L60 113.393M69.5 68.3932L98.5 102.893M69.5 68.3932L60 113.393M98.5 102.893L60 113.393" stroke="black" stroke-opacity="0.5" stroke-width="2" stroke-linecap="round" stroke-linejoin="round"/>
<path d="M102.5 12.3933L44.5 6.39325L64 66.8933M102.5 12.3933L133.5 50.8933M102.5 12.3933L64 66.8933M133.5 50.8933L143.5 96.3932M133.5 50.8933L64 66.8933M133.5 50.8933L104 101.893M143.5 96.3932L128.5 159.393M143.5 96.3932L104 101.893M128.5 159.393L74.5 152.893M128.5 159.393L104 101.893M74.5 152.893L28 161.393L4.50001 109.393M74.5 152.893L64 66.8933M74.5 152.893L4.50001 109.393M74.5 152.893L104 101.893M4.50001 109.393L64 66.8933M64 66.8933L104 101.893" stroke="black" stroke-width="4" stroke-linecap="round" stroke-linejoin="round"/>
<path d="M26.152 47.12C29.864 47.888 35.7013 49.424 37.664 51.728C39.6693 53.9893 40.672 56.7413 40.672 59.984C40.672 62.6293 39.9467 65.0827 38.496 67.344C37.088 69.6054 34.912 71.44 31.968 72.848C29.0667 74.2133 25.4613 74.896 21.152 74.896C17.9947 74.896 14.8587 74.512 11.744 73.744C9.35219 73.1461 7.20609 72.3541 5.3057 71.3682C4.39845 70.8975 4.08121 69.7822 4.5259 68.8619L7.34141 63.0354C7.87346 61.9343 9.25932 61.5711 10.3436 62.1365C11.5559 62.7688 12.8547 63.2886 14.24 63.696C16.4587 64.336 18.6347 64.656 20.768 64.656C22.944 64.656 24.672 64.2507 25.952 63.44C27.232 62.6293 27.872 61.4773 27.872 59.984C27.872 57.0827 25.5893 54.632 21.024 54.632H14C13.4477 54.632 13 54.1843 13 53.632V48.5884C13 47.9836 13.2737 47.4113 13.7444 47.0316L23.712 38.992H9.68079C8.7305 38.992 7.91142 38.3233 7.72125 37.3922L6.53824 31.6002C6.28501 30.3604 7.23236 29.2 8.49779 29.2H35.6433C36.6618 29.2 37.5177 29.9654 37.6309 30.9776L38.3031 36.9839C38.3828 37.6965 38.075 38.3972 37.4964 38.8205L26.152 47.12Z" fill="black"/>
<path d="M32.3938 73.7528L32.3995 73.7501C35.4741 72.2797 37.8119 70.3318 39.3412 67.8784C40.8912 65.4601 41.672 62.8218 41.672 59.984C41.672 56.5195 40.5942 53.5286 38.4185 51.0716C37.2465 49.7016 35.0668 48.6735 32.8978 47.9054C31.456 47.3948 29.9275 46.969 28.5197 46.6268L38.0868 39.6276C38.9548 38.9926 39.4165 37.9415 39.2969 36.8727L38.6247 30.8664C38.4548 29.3481 37.1711 28.2 35.6433 28.2H8.49779C6.59965 28.2 5.17862 29.9406 5.55847 31.8004L6.74148 37.5924C7.02673 38.989 8.25535 39.992 9.68079 39.992H20.8793L13.1166 46.2532C12.4105 46.8228 12 47.6812 12 48.5884V53.632C12 54.7366 12.8954 55.632 14 55.632H21.024C23.1325 55.632 24.5935 56.1967 25.5103 56.9802C26.4171 57.7551 26.872 58.8092 26.872 59.984C26.872 61.1286 26.4126 61.9646 25.417 62.5952C24.3524 63.2694 22.833 63.656 20.768 63.656C18.7367 63.656 16.6548 63.3516 14.5198 62.736C13.1943 62.3459 11.957 61.8501 10.806 61.2499C9.29051 60.4596 7.25119 60.9237 6.44102 62.6003L3.62551 68.4268C2.96742 69.7887 3.41373 71.5132 4.84519 72.2559C6.82427 73.2826 9.04517 74.1001 11.5015 74.7142L11.5046 74.7149C14.6963 75.5019 17.9127 75.896 21.152 75.896C25.5605 75.896 29.3217 75.1985 32.3938 73.7528Z" stroke="black" stroke-opacity="0.5" stroke-width="2"/>
<path d="M100.52 184.56C100.52 184.008 100.072 183.56 99.52 183.56H86.0267C85.0436 183.56 84.2062 182.845 84.0516 181.875L82.6885 173.315C82.4951 172.1 83.4336 171 84.6637 171H132.136C133.366 171 134.305 172.1 134.111 173.315L132.748 181.875C132.594 182.845 131.756 183.56 130.773 183.56H117.36C116.808 183.56 116.36 184.008 116.36 184.56V225C116.36 226.105 115.465 227 114.36 227H102.52C101.415 227 100.52 226.105 100.52 225V184.56Z" fill="black"/>
<path d="M86.0267 184.56H99.52V225C99.52 226.657 100.863 228 102.52 228H114.36C116.017 228 117.36 226.657 117.36 225V184.56H130.773C132.248 184.56 133.504 183.488 133.736 182.032L135.099 173.472C135.389 171.65 133.981 170 132.136 170H84.6637C82.8186 170 81.4108 171.65 81.701 173.472L83.064 182.032C83.296 183.488 84.552 184.56 86.0267 184.56Z" stroke="black" stroke-opacity="0.5" stroke-width="2"/>
<path d="M28 173C28 171.895 28.8954 171 30 171H52.2978C57.9257 171 62.9174 172.147 67.2729 174.44C71.6283 176.733 75.0051 179.987 77.403 184.2C79.801 188.413 81 193.347 81 199C81 204.653 79.801 209.587 77.403 213.8C75.0051 218.013 71.6283 221.267 67.2729 223.56C62.9174 225.853 57.9257 227 52.2978 227H30C28.8954 227 28 226.105 28 225V173ZM51.7105 214.36C56.115 214.36 59.6385 213 62.2812 210.28C64.9728 207.56 66.3186 203.8 66.3186 199C66.3186 194.2 64.9728 190.44 62.2812 187.72C59.6385 185 56.115 183.64 51.7105 183.64H43.5346C42.9823 183.64 42.5346 184.088 42.5346 184.64V213.36C42.5346 213.912 42.9823 214.36 43.5346 214.36H51.7105Z" fill="black"/>
<path d="M61.5704 209.577L61.5703 209.577L61.5639 209.583C59.1402 212.078 55.8921 213.36 51.7105 213.36H43.5346L43.5346 184.64H51.7105C55.8921 184.64 59.1402 185.922 61.5639 188.417L61.5639 188.417L61.5704 188.423C64.0323 190.911 65.3186 194.393 65.3186 199C65.3186 203.607 64.0323 207.089 61.5704 209.577ZM52.2978 170H30C28.3431 170 27 171.343 27 173V225C27 226.657 28.3431 228 30 228H52.2978C58.0646 228 63.2202 226.824 67.7388 224.445C72.2604 222.064 75.7782 218.677 78.2721 214.295C80.7692 209.907 82 204.798 82 199C82 193.202 80.7692 188.093 78.2721 183.705C75.7782 179.323 72.2604 175.936 67.7388 173.555C63.2202 171.176 58.0646 170 52.2978 170Z" stroke="black" stroke-opacity="0.5" stroke-width="2"/>
<circle cx="11.5" cy="219.5" r="7.5" fill="black"/>
<circle cx="11.5" cy="219.5" r="8.5" stroke="black" stroke-opacity="0.5" stroke-width="2"/>
</svg>
